<?xml version="1.0" encoding="utf-8"?>
<svg xmlns="http://www.w3.org/2000/svg" xmlns:xlink="http://www.w3.org/1999/xlink" style="margin: auto; background: none; display: block; shape-rendering: auto;" width="271px" height="271px" viewBox="0 0 100 100" preserveAspectRatio="xMidYMid">
<g transform="rotate(0 50 50)">
  <rect x="47" y="11.5" rx="3" ry="11.5" width="6" height="23" fill="#090909">
    <animate attributeName="opacity" values="1;0" keyTimes="0;1" dur="1.8518518518518516s" begin="-1.6666666666666665s" repeatCount="indefinite"></animate>
  </rect>
</g><g transform="rotate(36 50 50)">
  <rect x="47" y="11.5" rx="3" ry="11.5" width="6" height="23" fill="#090909">
    <animate attributeName="opacity" values="1;0" keyTimes="0;1" dur="1.8518518518518516s" begin="-1.4814814814814814s" repeatCount="indefinite"></animate>
  </rect>
</g><g transform="rotate(72 50 50)">
  <rect x="47" y="11.5" rx="3" ry="11.5" width="6" height="23" fill="#090909">
    <animate attributeName="opacity" values="1;0" keyTimes="0;1" dur="1.8518518518518516s" begin="-1.2962962962962963s" repeatCount="indefinite"></animate>
  </rect>
</g><g transform="rotate(108 50 50)">
  <rect x="47" y="11.5" rx="3" ry="11.5" width="6" height="23" fill="#090909">
    <animate attributeName="opacity" values="1;0" keyTimes="0;1" dur="1.8518518518518516s" begin="-1.111111111111111s" repeatCount="indefinite"></animate>
  </rect>
</g><g transform="rotate(144 50 50)">
  <rect x="47" y="11.5" rx="3" ry="11.5" width="6" height="23" fill="#090909">
    <animate attributeName="opacity" values="1;0" keyTimes="0;1" dur="1.8518518518518516s" begin="-0.9259259259259258s" repeatCount="indefinite"></animate>
  </rect>
</g><g transform="rotate(180 50 50)">
  <rect x="47" y="11.5" rx="3" ry="11.5" width="6" height="23" fill="#090909">
    <animate attributeName="opacity" values="1;0" keyTimes="0;1" dur="1.8518518518518516s" begin="-0.7407407407407407s" repeatCount="indefinite"></animate>
  </rect>
</g><g transform="rotate(216 50 50)">
  <rect x="47" y="11.5" rx="3" ry="11.5" width="6" height="23" fill="#090909">
    <animate attributeName="opacity" values="1;0" keyTimes="0;1" dur="1.8518518518518516s" begin="-0.5555555555555555s" repeatCount="indefinite"></animate>
  </rect>
</g><g transform="rotate(252 50 50)">
  <rect x="47" y="11.5" rx="3" ry="11.5" width="6" height="23" fill="#090909">
    <animate attributeName="opacity" values="1;0" keyTimes="0;1" dur="1.8518518518518516s" begin="-0.37037037037037035s" repeatCount="indefinite"></animate>
  </rect>
</g><g transform="rotate(288 50 50)">
  <rect x="47" y="11.5" rx="3" ry="11.5" width="6" height="23" fill="#090909">
    <animate attributeName="opacity" values="1;0" keyTimes="0;1" dur="1.8518518518518516s" begin="-0.18518518518518517s" repeatCount="indefinite"></animate>
  </rect>
</g><g transform="rotate(324 50 50)">
  <rect x="47" y="11.5" rx="3" ry="11.5" width="6" height="23" fill="#090909">
    <animate attributeName="opacity" values="1;0" keyTimes="0;1" dur="1.8518518518518516s" begin="0s" repeatCount="indefinite"></animate>
  </rect>
</g>
<!-- [ldio] generated by https://loading.io/ --></svg>